<?xml version="1.0" encoding="UTF-8"?>
<svg id="SVGDoc" width="19" height="18" xmlns="http://www.w3.org/2000/svg" version="1.1" xmlns:xlink="http://www.w3.org/1999/xlink" xmlns:avocode="https://avocode.com/" viewBox="0 0 19 18"><defs></defs><desc>Generated with Avocode.</desc><g><g><title>Arrow</title><path d="M0.99998,7.99969l14.55537,0l-6.27053,-6.27059c-0.39932,-0.39916 -0.39932,-1.04675 0,-1.4463c0.39925,-0.39955 1.04645,-0.39955 1.44592,0l7.95204,7.95227c0.11052,0.11061 0.19045,0.24023 0.23978,0.37832c0.04984,0.11887 0.07737,0.24941 0.07737,0.38637c0,0.1449 -0.03082,0.28262 -0.08627,0.40694c-0.04981,0.1291 -0.12677,0.2501 -0.23088,0.35419l-7.95204,7.95306c-0.39948,0.39955 -1.04668,0.39955 -1.44592,0c-0.39932,-0.39995 -0.39932,-1.04675 0,-1.44669l6.26737,-6.26743h-14.5522c-0.55229,0 -0.99998,-0.44781 -0.99998,-1.00007c0,-0.55225 0.44769,-1.00007 0.99998,-1.00007z" fill="#8f75be" fill-opacity="1"></path></g></g></svg>