<?xml version="1.0" encoding="UTF-8"?>
<svg id="SVGDoc" width="14" height="14" xmlns="http://www.w3.org/2000/svg" version="1.1" xmlns:xlink="http://www.w3.org/1999/xlink" xmlns:avocode="https://avocode.com/" viewBox="0 0 14 14"><defs></defs><desc>Generated with Avocode.</desc><g><g><title>clock</title><path d="M6.99997,14.00006c-3.85971,0 -6.99997,-3.14035 -6.99997,-6.99989c0,-3.85986 3.14026,-7.00022 6.99997,-7.00022c3.85979,0 7.00005,3.14035 7.00005,7.00022c0,3.85954 -3.14026,6.99989 -7.00005,6.99989zM6.99997,1.1666c-3.21655,0 -5.83328,2.61669 -5.83328,5.83357c0,3.21655 2.61673,5.83324 5.83328,5.83324c3.21663,0 5.83336,-2.61669 5.83336,-5.83324c0,-3.21688 -2.61673,-5.83357 -5.83336,-5.83357zM6.4167,2.91657c0,-0.32198 0.26115,-0.58332 0.58327,-0.58332c0.32219,0 0.58334,0.26134 0.58334,0.58332v3.84205l2.1624,2.1624c0.22797,0.22795 0.22797,0.59694 0,0.82489c-0.11391,0.11381 -0.26306,0.17088 -0.41237,0.17088c-0.14931,0 -0.29854,-0.05707 -0.41245,-0.17088l-2.33065,-2.33065c-0.00801,-0.00791 -0.01578,-0.01604 -0.02333,-0.02439c-0.06023,-0.06664 -0.10235,-0.14381 -0.12638,-0.22516c-0.00424,-0.01435 -0.00795,-0.02894 -0.01109,-0.04373c-0.00921,-0.04326 -0.01346,-0.08735 -0.01275,-0.13138z" fill="#9fa3a7" fill-opacity="1"></path></g></g></svg>