<?xml version="1.0" encoding="UTF-8"?>
<svg id="SVGDoc" width="14" height="14" xmlns="http://www.w3.org/2000/svg" version="1.1" xmlns:xlink="http://www.w3.org/1999/xlink" xmlns:avocode="https://avocode.com/" viewBox="0 0 14 14"><defs></defs><desc>Generated with Avocode.</desc><g><g><title>clock</title><path d="M6.99997,14.00017c-3.85971,0 -6.99997,-3.14035 -6.99997,-7.00022c0,-3.85954 3.14026,-6.99989 6.99997,-6.99989c3.85979,0 7.00005,3.14035 7.00005,6.99989c0,3.85986 -3.14026,7.00022 -7.00005,7.00022zM6.99997,1.16671c-3.21655,0 -5.83328,2.61669 -5.83328,5.83324c0,3.21655 2.61673,5.83324 5.83328,5.83324c3.21663,0 5.83336,-2.61669 5.83336,-5.83324c0,-3.21655 -2.61673,-5.83324 -5.83336,-5.83324zM6.4167,2.91668c0,-0.32198 0.26115,-0.58332 0.58327,-0.58332c0.32219,0 0.58334,0.26134 0.58334,0.58332v3.84172l2.1624,2.1624c0.22797,0.22795 0.22797,0.59694 0,0.82489c-0.11391,0.11414 -0.26306,0.17088 -0.41237,0.17088c-0.14931,0 -0.29854,-0.05674 -0.41245,-0.17088l-2.32573,-2.32573c-0.04241,-0.04089 -0.07864,-0.08814 -0.10715,-0.14022c-0.00366,-0.00669 -0.00719,-0.01344 -0.01057,-0.02024c-0.02227,-0.04477 -0.03896,-0.09281 -0.04915,-0.14322c-0.00841,-0.04146 -0.01227,-0.08366 -0.01159,-0.12579z" fill="#ffffff" fill-opacity="1"></path></g></g></svg>