<?xml version="1.0" encoding="UTF-8"?>
<svg id="SVGDoc" width="18" height="13" xmlns="http://www.w3.org/2000/svg" version="1.1" xmlns:xlink="http://www.w3.org/1999/xlink" xmlns:avocode="https://avocode.com/" viewBox="0 0 18 13"><defs></defs><desc>Generated with Avocode.</desc><g><g><title>Eye Icon</title><path d="M18,6.49951c-1.39091,3.8135 -4.90906,6.4999 -9.00002,6.4999c-4.09088,0 -7.6091,-2.68641 -9.00002,-6.4999c1.39091,-3.8135 4.90913,-6.4999 9.00002,-6.4999c4.09096,0 7.6091,2.68641 9.00002,6.4999zM13.09094,6.49951c0,-2.42636 -1.8,-4.33327 -4.09096,-4.33327c-2.29088,0 -4.09088,1.90691 -4.09088,4.33327c0,2.42668 1.8,4.33359 4.09088,4.33359c2.29095,0 4.09096,-1.90691 4.09096,-4.33359zM11.45451,6.49951c0,1.47371 -1.06361,2.60015 -2.45453,2.60015c-1.39091,0 -2.45453,-1.12644 -2.45453,-2.60015c0,-1.47339 1.06361,-2.59983 2.45453,-2.59983c1.39091,0 2.45453,1.12644 2.45453,2.59983z" fill="#9fa3a7" fill-opacity="1"></path></g></g></svg>