<?xml version="1.0" encoding="UTF-8"?>
<svg id="SVGDoc" width="217" height="143" xmlns="http://www.w3.org/2000/svg" version="1.1" xmlns:xlink="http://www.w3.org/1999/xlink" xmlns:avocode="https://avocode.com/" viewBox="0 0 217 143"><defs></defs><desc>Generated with Avocode.</desc><g><g><title>Icon</title><path d="M101.72888,6.76231c0,3.80085 -3.05031,6.82253 -6.79237,6.82253c-32.64717,0 -60.85907,19.43226 -73.81775,47.37152c6.6893,-4.11699 14.54849,-6.49179 22.95151,-6.49179c24.30672,0 44.07715,19.8554 44.07715,44.26943c0,24.41435 -19.77043,44.27235 -44.07715,44.27235c-24.30229,0 -44.07188,-19.858 -44.07188,-44.27235c0,-0.86607 0.03151,-1.72565 0.08118,-2.58102c-0.03273,-0.26783 -0.08118,-0.53274 -0.08118,-0.81127c0,-52.5861 42.58232,-95.3562 94.93813,-95.3562c3.74207,0 6.79237,3.02298 6.79237,6.77681zM217.00072,6.76231c0,3.80085 -3.01392,6.82253 -6.78909,6.82253c-32.63626,0 -60.8239,19.42026 -73.77899,47.34461c6.68167,-4.10078 14.52667,-6.46488 22.91359,-6.46488c24.30672,0 44.10988,19.8554 44.10988,44.26943c0,24.41435 -19.80316,44.27235 -44.10988,44.27235c-24.30672,0 -44.07715,-19.858 -44.07715,-44.27235c0,-0.86737 0.03189,-1.72955 0.08118,-2.58654c-0.03151,-0.26751 -0.08118,-0.53015 -0.08118,-0.80576c0,-52.5861 42.58675,-95.3562 94.94255,-95.3562c3.77518,0 6.78909,3.02298 6.78909,6.77681z" fill="#ffc80a" fill-opacity="1"></path></g></g></svg>