<?xml version="1.0" encoding="UTF-8"?>
<svg id="SVGDoc" width="15" height="15" xmlns="http://www.w3.org/2000/svg" version="1.1" xmlns:xlink="http://www.w3.org/1999/xlink" xmlns:avocode="https://avocode.com/" viewBox="0 0 15 15"><defs></defs><desc>Generated with Avocode.</desc><g><g><title>Icon</title><path d="M1.98952,2.5042c2.34314,-2.34173 6.14212,-2.34173 8.48511,0c2.1023,2.10133 2.31839,5.37384 0.64825,7.71499l2.88736,2.88471c0.39055,0.39137 0.39055,1.0243 0,1.41502c-0.39047,0.39007 -1.02356,0.39007 -1.41411,0l-2.88739,-2.8868c-2.34308,1.66879 -5.61705,1.45274 -7.71922,-0.64817c-2.34322,-2.34076 -2.34322,-6.13771 0,-8.47977zM3.4037,9.57154c1.56191,1.5617 4.09394,1.56191 5.65611,0.00063c0.00021,-0.00021 0.00042,-0.00042 0.00063,-0.00063c0.00023,-0.00023 0.00046,-0.00046 0.00068,-0.00068c1.56143,-1.56132 1.56121,-4.09157 -0.00068,-5.65195c-1.56212,-1.56158 -4.09462,-1.56158 -5.65674,0c-1.56212,1.56061 -1.56212,4.09138 0,5.65264z" fill="#9fa3a7" fill-opacity="1"></path></g></g></svg>