<?xml version="1.0" encoding="UTF-8"?>
<svg id="SVGDoc" width="16" height="15" xmlns="http://www.w3.org/2000/svg" version="1.1" xmlns:xlink="http://www.w3.org/1999/xlink" xmlns:avocode="https://avocode.com/" viewBox="0 0 16 15"><defs></defs><desc>Generated with Avocode.</desc><g><g><title>Icon</title><path d="M13.33556,14.9972c-0.17036,0 -0.34073,-0.0668 -0.47081,-0.19974c-0.26009,-0.26588 -0.26009,-0.69811 0,-0.96432l0.86033,-0.88196h-1.49235c-0.783,0 -1.53343,-0.38067 -2.00676,-1.01944l-1.34735,-1.83071c-0.22118,-0.30058 -0.16266,-0.72794 0.1313,-0.95524c0.29388,-0.22633 0.71144,-0.16504 0.93246,0.13456l1.34605,1.82877c0.2211,0.29863 0.57487,0.47827 0.94429,0.47827l1.49178,0l-0.86106,-0.88196c-0.26016,-0.26621 -0.26016,-0.69778 0,-0.96399c0.26009,-0.26653 0.68146,-0.26653 0.94162,0l1.9976,2.04569c0.26009,0.26653 0.26009,0.69811 0,0.96432l-1.99631,2.04601c-0.13008,0.13294 -0.30045,0.19974 -0.47081,0.19974zM7.1131,7.39453l-2.44507,-3.51713c-0.21332,-0.29182 -0.28008,-0.51783 -0.65231,-0.51783h-3.34641c-0.36774,0 -0.67612,-0.2607 -0.67612,-0.63747c0,-0.3771 0.29823,-0.68222 0.66589,-0.68222h3.06801c0.78979,0 1.54373,0.38651 2.01653,1.03371l2.24953,3.23559l2.22366,-3.18825c0.47081,-0.67671 1.2381,-1.08105 2.05101,-1.08105l1.43355,0l-0.86005,-0.88163c-0.26009,-0.26653 -0.26009,-0.69876 0,-0.96432c0.26016,-0.26653 0.68153,-0.26653 0.94162,0l1.98818,2.03728c0.0994,0.09835 0.16895,0.22816 0.19347,0.37386c0.00742,0.04393 0.01063,0.08846 0.00961,0.13291c-0.00392,0.2445 -0.0987,0.43837 -0.2682,0.54105l-1.92436,1.97092c-0.13008,0.13327 -0.30045,0.19974 -0.47081,0.19974c-0.17036,0 -0.34073,-0.06647 -0.47081,-0.19974c-0.26009,-0.26621 -0.26009,-0.69778 0,-0.96432l0.90434,-0.92606h-1.69734c-0.38368,0 -0.52444,0.23476 -0.74615,0.55382l-5.54977,7.95708c-0.47142,0.67671 -1.23817,1.08072 -2.05063,1.08072h-3.04138c-0.36766,0 -0.66589,-0.30512 -0.66589,-0.6819c0,-0.37678 0.29823,-0.6819 0.66589,-0.6819h3.04138c0.383,0 0.74455,-0.19033 0.96664,-0.5094l2.51233,-3.60215c-0.02379,-0.02494 -0.046,-0.05207 -0.06635,-0.08132z" fill="#9fa3a7" fill-opacity="1"></path></g></g></svg>